<svg id="Layer_1" data-name="Layer 1" xmlns="http://www.w3.org/2000/svg" viewBox="0 0 392.88 210.19"><defs><style>.cls-1{fill:#f39200;}</style></defs><title>CARVIO_LOGO VE TECH2</title><path d="M134,113.92c1.67-.91,3.66-1.22,4.72.76.77,1.38,0,2.9-.91,3.81a21.63,21.63,0,0,1-4.12,3.2c-10.36,6.55-20.57,12.8-32.45,16a44.69,44.69,0,0,1-11.89,1.68c-9.3.15-18.29-2.44-24.54-8.54-5.18-5-8.23-12.19-8.08-21.18a53.14,53.14,0,0,1,7.16-26.06A181.55,181.55,0,0,1,87.52,51.43c8.54-9.45,22.41-23.16,35.05-23.16,9.76,0,13.56,8.84,13.56,16.16a35.34,35.34,0,0,1-11.44,25.91,54.6,54.6,0,0,1-16.15,11.43c-1.52.76-3.51.46-4.11-1.38-.77-2.44.6-3.66,2.28-4.88,3.8-2.89,7.46-5.79,11-9,5.64-5.34,9.91-12,9.91-19.66,0-5.79-2-11-7-11-3.2,0-7,1.68-10.52,4.57a154.59,154.59,0,0,0-35.19,41.3c-3.8,6.86-7.16,17.07-7.16,26.52,0,5.18,1.67,10.66,4.42,13.71,4.42,5,11.43,6.71,17.67,6.71,14.48,0,24.23-4.27,37-11C129.73,116.2,131.26,115.29,134,113.92Z" transform="translate(-56.72 -28.27)"/><path d="M179.56,115.14c-.77,2.29.62,3.8,2.9,4a44,44,0,0,0,16-2.43c2.74-.91,5-1.52,7.62-2.59,1.82-.76,3-.46,4,1.22.6,1.07-.16,2.75-1.22,3.66a36.52,36.52,0,0,1-9,5.49c-7.77,3.35-13.11,5-20.27,5a14.94,14.94,0,0,1-11.42-5c-.61-.77-1.22-1.68-1.83-2.59l-7.48,4.57a65.92,65.92,0,0,1-18,8.07c-4.12,1.07-8.69-1.83-10.06-5.94a15,15,0,0,1,.61-10.67,71.54,71.54,0,0,1,24.38-30.64,29.85,29.85,0,0,1,17.84-5.94,14.87,14.87,0,0,1,6.55,1.52,3,3,0,0,1,1.37,3.5c-.61,1.83-3.2,1.68-4.73,1.52-9.6-.91-16.77,3.36-22.71,9-6.24,5.94-11.27,13-12.64,21.79a4.29,4.29,0,0,0,1.22,3.5,4.12,4.12,0,0,0,3.35.61c8.07-2,14.17-7.17,18.59-14.18a74.08,74.08,0,0,1,7.77-10.36c2.43-2.9,6.86-1.53,9,1.83,1.82,2.89,1.37,5.48.6,7.93S180.33,112.7,179.56,115.14Z" transform="translate(-56.72 -28.27)"/><path d="M214.77,84.05a5.46,5.46,0,0,1,1.83-6.55,25.07,25.07,0,0,1,6-3.81c2-.91,3.51,0,5,1.22A22,22,0,0,1,230.93,79c1.21,1.83,2.44,4.57,4.41,5.48,9.45,4.88,10.06,13.11,8.38,21.95-.76,4.73-2.73,9.3-1.52,14.32.61,2.59,3.35,3.66,5.8,3.66a30.18,30.18,0,0,0,8.37-1.53,140.67,140.67,0,0,0,17.38-6.25c2.89-1.22,4.72-2.14,6.55-2.9s3.35-.46,4,1.22a3.61,3.61,0,0,1-1.22,3.66,26.6,26.6,0,0,1-4.58,3c-5.34,2.89-10.06,5.34-15.55,7.93a48.53,48.53,0,0,1-21.48,4.88c-3.66,0-6.25-.91-8.23-2.89a11.68,11.68,0,0,1-3.2-8.08c0-5.94,1.67-11.89,2.74-16.91a18.7,18.7,0,0,0,.15-7.16,6.47,6.47,0,0,0-4.73-4.57,4.78,4.78,0,0,0-4.72,1.83c-3.51,5.49-4.12,6.55-7.32,12.2-4.57,7.92-5.94,10.36-9.91,18.28-2.28,4.57-2.74,5.64-4.88,10.67-.91,2.13-1.67,4.42-2.59,6.7A4.32,4.32,0,0,1,194,146.4a4.4,4.4,0,0,1-2.59-4.11,25.27,25.27,0,0,1,2.59-7.16c3.82-8.07,6.1-12.19,9.91-19.35,2.9-5.49,3.95-7.32,6.7-11.89,2.9-4.72,4-6.55,7.47-12C217.21,89.53,216,86.79,214.77,84.05Z" transform="translate(-56.72 -28.27)"/><path d="M341.42,102.18c7.77,0,15.09-3.5,21.49-6.86,1.52-.76,2.43-.76,3.35.15.77.77.77,1.68,0,3a34.3,34.3,0,0,1-9,8.38,43,43,0,0,1-24.38,7.46,30.4,30.4,0,0,1-6.4-.76,177.27,177.27,0,0,1-15.71,13.56c-8.38,6.25-14.93,9.45-23.62,11.89a21.24,21.24,0,0,1-5.79,1.07,9.07,9.07,0,0,1-5.48-1.52c-4.58-3.51-2.3-12-.62-16A149.54,149.54,0,0,1,287,99.43c1.83-2.89,3.66-5.34,5.95-6.86a3.89,3.89,0,0,1,4.41-.15,3.52,3.52,0,0,1,1.22,3,16.47,16.47,0,0,1-2,5.18c-2.75,4.73-5.19,9.14-7.47,14a24.56,24.56,0,0,0-2.29,8.84c-.15,3.35,2.9,5.18,6.1,4,10.81-4.12,19.5-11.89,23.62-23.47q2.74-7.77,5-15.54a12.93,12.93,0,0,1,4.57-7,4.92,4.92,0,0,1,5.18-.61,7.14,7.14,0,0,1,4.12,7.62c-.46,3.5-1.38,7-2.14,10.52C335.63,101.57,338.38,102.18,341.42,102.18Z" transform="translate(-56.72 -28.27)"/><path d="M383.94,129.62a48.64,48.64,0,0,1-23,4.88c-5.33-.15-9-2.89-11-7.93-2-4.72-1.68-9,.75-13.87,2.6-5.18,5.8-10.52,9-15.7,1.52-2.44,4.42-3.5,6.86-2.13a4.35,4.35,0,0,1,1.68,5.64c-1.68,4.11-3.36,8.08-5.34,12.19a12.44,12.44,0,0,0-1.08,7c.47,3.5,4.59,5.79,7.63,5.18a135.87,135.87,0,0,0,25.3-8.23c2.91-1.22,4.73-2.14,6.56-2.9s3.35-.46,4,1.22a3.6,3.6,0,0,1-1.23,3.66,26.4,26.4,0,0,1-4.56,3C394.15,124.58,389.43,127,383.94,129.62ZM389.58,63a4.44,4.44,0,0,1-6.86,2.44c-3.05-2.13-4.73-5.18-4.12-9a4.2,4.2,0,0,1,2-2.59c5.19-2.75,9.45-.15,9.45,5.64A14,14,0,0,1,389.58,63Z" transform="translate(-56.72 -28.27)"/><path d="M410.16,95.63a31.26,31.26,0,0,1,6.09-6.71,12.91,12.91,0,0,1,10.21-2.59c4.72.61,8.54,1.83,11.43,4.73,3.66,3.5,6.24,8.69,5.64,12.8a28.79,28.79,0,0,1-11.58,20,67.92,67.92,0,0,1-12.35,7.47c-7.62,3.5-15.55,5.94-21.49-.31-3.35-3.5-1.06-12.8,2.59-19.81A137.17,137.17,0,0,1,410.16,95.63Zm5.47,27.28a27.51,27.51,0,0,0,10.53-6.4,18.7,18.7,0,0,0,5.63-13c.16-2.29-2-4.57-4.42-5.18-3.05-.77-6.09-.46-8.23,1.83a38.68,38.68,0,0,0-9.75,16.91c-.62,2.14.46,5,2.59,5.79A5,5,0,0,0,415.63,122.91Z" transform="translate(-56.72 -28.27)"/><path class="cls-1" d="M270.34,139.71h2.29c1,.21,1.46.73,1.46,1.56q0,3.12-6.77,18.74H445.85l3.75.83V163q0,2.29-13.64,2.29H433l-2.19-1.56H265.14q0,.92-30.71,72.66c-7.1,6.72-4.67-5.35-4.67-5.35l28.72-67.31H210.39c-1,0-1.46-.52-1.46-1.56.56-1.46,2.08-2.19,4.58-2.19h45.6q1.25,0,9.79-19.47Z" transform="translate(-56.72 -28.27)"/><path class="cls-1" d="M276.69,175.62H278c4.09.35,6.14,2.08,6.14,5.21q0,4.17-16.55,9.06-3.75,7.91-3.75,10.41h.73q9.06-.72,24.67-14.16h2.39q1.35.11,1.35,1.35v1.56q-15,15-26.23,15h-4.37q-5.31,0-5.31-4.48,0-4,3.75-8.95l-.73-1.56v-1.56q1.56,0,11.24-10.41Zm-3,7.5h.63l3.12-3.12C275.13,181,273.88,182.08,273.67,183.12Z" transform="translate(-56.72 -28.27)"/><path class="cls-1" d="M304.38,175.93q6.66,1.14,6.66,5.31c-.62,3.47-1.6,5.2-2.91,5.2h-3.75a1.29,1.29,0,0,1-1.46-1.46,9.16,9.16,0,0,0,1.46-4.48q-9.58,0-17.18,21.65a6.28,6.28,0,0,1,.73,2.19h2.19q6.45,0,27.79-17.91a5.35,5.35,0,0,1,3-.83h.73c1,.21,1.46.73,1.46,1.56v1.56q-21.14,20.19-35.19,20.2-7.5-1.24-7.5-6.77Q288.88,175.95,304.38,175.93Z" transform="translate(-56.72 -28.27)"/><path class="cls-1" d="M348.65,129c-.56,3.05-3.92,10.46-24.39,61.33a17.39,17.39,0,0,1-.83,3.12q9.06-15,17.38-15H343q1.67,0,2.29,3.75A126.21,126.21,0,0,0,340,197.8q4.89-2.91,16.55-14.16h3a1.35,1.35,0,0,1,1.35,1.56v1.35q-12.5,13.63-18.74,16.55H335.5q-1.14,0-2.19-2.19v-3.12q0-3.43,3.75-11.87h-.83q-10.41,18-15.72,18h-1.46q-4.07,0-4.48-2.39v-.62c3-10.9,6.62-20.48,26.61-70a5.46,5.46,0,0,1,3.4-3.94C347.52,125.85,348.65,129,348.65,129Z" transform="translate(-56.72 -28.27)"/></svg>